<svg width="40" height="41" viewBox="0 0 40 41" fill="none" xmlns="http://www.w3.org/2000/svg">
<g clip-path="url(#clip0_248_3957)">
<path d="M39.9998 20.7368C39.9451 31.6799 30.9975 40.5546 20.0635 40.4999C8.91092 40.4453 -0.0549093 31.4885 -0.000239592 20.4544C0.0635417 9.38376 9.10227 0.454371 20.2002 0.499929C31.2162 0.554599 40.0635 9.59332 39.9998 20.7368Z" fill="#FEFAF4"/>
<path d="M27.3622 7.32472C30.2232 10.1858 30.5786 13.5388 28.5831 17.2564C27.4897 19.2974 25.9043 20.9466 24.3736 22.6413C21.9316 25.3293 20.7562 28.4546 20.902 32.0901C20.9294 32.6915 20.9476 33.311 20.8838 33.9033C20.7836 34.8054 20.2004 35.1972 19.3166 34.9876C18.5239 34.8054 17.7403 34.5776 16.9567 34.3862C16.7562 34.3407 16.5376 34.3589 16.3371 34.3771C15.4533 34.4682 14.9704 34.2131 14.5603 33.4568C14.1959 32.7826 14.533 32.3088 14.9613 31.8441C16.82 29.8213 17.3576 27.3885 16.9567 24.7644C16.6378 22.6687 16.0455 20.6186 15.6993 18.532C15.2346 15.7256 15.4806 12.9921 17.0569 10.5138C18.4054 8.409 20.2916 7.00581 22.6697 6.25866C24.5467 5.67551 26.2323 5.87597 27.3622 7.32472ZM18.8884 30.1038C18.9886 30.1129 19.0888 30.122 19.1799 30.1311C19.7175 28.7006 20.2278 27.2609 20.7927 25.8304C21.0205 25.2564 21.2665 24.6459 21.6492 24.1721C22.8246 22.7325 24.1275 21.3839 25.2847 19.9261C26.1594 18.8236 26.9521 17.6391 27.6629 16.4181C27.9089 15.9899 27.7813 15.352 27.8178 14.8054C27.8178 14.7598 27.7449 14.7051 27.672 14.6231C27.6082 14.8327 27.5626 14.9876 27.508 15.1972C27.3166 15.0423 27.1708 14.9147 26.9521 14.7325C26.861 15.8532 26.3143 16.6368 25.5854 17.3293C25.4123 17.4842 25.2665 17.6664 25.1025 17.8304C22.7972 20.0719 20.8929 22.5685 20.2916 25.8395C20.2642 25.9762 20.1731 26.1038 20.1093 26.2313C20.0638 26.2313 20.0182 26.2313 19.9726 26.2222C19.8269 25.4022 19.672 24.5821 19.4897 23.5707C19.2802 24.081 19.1526 24.3908 19.025 24.6915H18.8155C18.5057 22.8509 18.205 21.0104 17.8952 19.1789C17.8588 19.1789 17.8223 19.1789 17.7859 19.1789C17.9863 22.286 18.1868 25.4022 18.3781 28.5183C18.5057 28.1721 18.6424 27.7985 18.779 27.4249C18.8975 27.4249 19.025 27.4341 19.1435 27.4432C19.0615 28.327 18.9795 29.2199 18.8975 30.1038H18.8884ZM23.0068 18.9329C23.3804 18.4682 23.7722 18.0126 24.1367 17.5297C25.3941 15.8623 25.9954 13.9944 25.795 11.9079C25.5854 9.83041 23.7266 8.79169 21.8588 9.6664C22.4237 9.75752 23.025 9.8213 23.6082 9.95797C23.7722 9.99442 23.8906 10.2222 24.0273 10.3589C23.8633 10.45 23.7084 10.6049 23.5353 10.6322C23.1708 10.696 22.7881 10.6778 22.4237 10.7142C20.6742 10.8782 19.0433 12.163 18.5786 13.794C18.9248 13.4477 19.1982 13.1197 19.5171 12.8646C20.164 12.3543 20.902 12.0445 21.7221 12.3543C22.5239 12.6641 22.8064 13.3748 22.9066 14.1858C23.0615 15.4978 22.779 16.7279 22.3508 17.9489C22.2779 18.1675 22.205 18.3862 22.1321 18.6049C23.3075 16.7279 24.6651 14.9603 25.1936 12.7644C25.6947 15.27 23.9818 16.9284 23.0068 18.9238V18.9329ZM27.6446 13.2473C27.6902 13.0468 27.7449 12.8555 27.7722 12.655C27.9909 10.7689 27.3257 9.12882 26.2597 7.63451C26.0683 7.36116 25.6674 7.09693 25.3485 7.08781C24.3553 7.05137 23.3531 7.14248 22.3508 7.17893C25.3394 8.24499 27.2346 9.33838 27.6446 13.2382V13.2473ZM15.6082 32.8555C15.5717 32.9192 15.5353 32.9921 15.4988 33.0559C15.8815 33.2108 16.2551 33.3931 16.6469 33.5024C16.7562 33.5297 16.9203 33.3293 17.066 33.229C16.9385 33.1197 16.8291 32.9375 16.6925 32.9193C16.3371 32.8646 15.9726 32.8737 15.6173 32.8555H15.6082ZM19.3439 34.2313C19.3713 34.1129 19.3986 33.9944 19.4351 33.8669C19.0433 33.7666 18.6606 33.6664 18.2688 33.5662L18.1868 33.8851C18.5786 34.0035 18.9613 34.122 19.3531 34.2313H19.3439Z" fill="#BF491F"/>
<path d="M18.8885 30.1037C18.9705 29.2199 19.0525 28.3269 19.1345 27.4431C19.016 27.4431 18.8885 27.434 18.77 27.4249C18.6333 27.7984 18.4967 28.172 18.3691 28.5183C18.1687 25.4021 17.9682 22.2859 17.7769 19.1789C17.8133 19.1789 17.8497 19.1789 17.8862 19.1789C18.196 21.0103 18.4967 22.8508 18.8065 24.6823H19.016C19.1436 24.3816 19.2712 24.0809 19.4807 23.5707C19.663 24.582 19.8179 25.4021 19.9636 26.2221C20.0092 26.2221 20.0548 26.2221 20.1003 26.2312C20.1641 26.1037 20.2552 25.9761 20.2826 25.8394C20.8839 22.5684 22.7882 20.0809 25.0935 17.8303C25.2575 17.6663 25.4124 17.4841 25.5764 17.3292C26.3053 16.6458 26.8611 15.8531 26.9431 14.7324C27.1709 14.9146 27.3167 15.0422 27.499 15.1971C27.5536 14.9966 27.6083 14.8326 27.663 14.623C27.7359 14.7142 27.8087 14.7597 27.8087 14.8053C27.7723 15.352 27.8999 15.9898 27.6538 16.418C26.9523 17.639 26.1595 18.8235 25.2757 19.926C24.1185 21.3839 22.8156 22.7233 21.6402 24.172C21.2575 24.6458 21.0115 25.2563 20.7837 25.8303C20.2188 27.2517 19.7085 28.6914 19.1709 30.131C19.0707 30.1219 18.9705 30.1128 18.8794 30.1037H18.8885Z" fill="#FEFAF4"/>
<path d="M22.9976 18.9329C23.9816 16.9284 25.6855 15.2792 25.1844 12.7735C24.6559 14.9694 23.2983 16.737 22.1229 18.614C22.1958 18.3953 22.2687 18.1767 22.3415 17.958C22.7607 16.737 23.0523 15.4978 22.8974 14.1949C22.7971 13.3839 22.5238 12.6732 21.7128 12.3634C20.8928 12.0445 20.1548 12.3634 19.5078 12.8737C19.1798 13.1288 18.9156 13.4568 18.5693 13.8031C19.034 12.1721 20.665 10.8874 22.4144 10.7234C22.788 10.6869 23.1616 10.696 23.5261 10.6414C23.6992 10.614 23.8541 10.4591 24.0181 10.368C23.8814 10.2313 23.763 10.0035 23.5989 9.96709C23.0158 9.83042 22.4144 9.76664 21.8495 9.67552C23.7083 8.80081 25.5762 9.83953 25.7857 11.917C25.9953 14.0035 25.3848 15.8714 24.1274 17.5388C23.763 18.0218 23.3712 18.4773 22.9976 18.942V18.9329ZM24.1365 11.2883C23.6081 11.9534 23.6627 12.9648 24.1821 13.5935C24.1639 12.8737 24.1548 12.0992 24.1365 11.2883Z" fill="#FEFAF4"/>
<path d="M27.6444 13.2472C27.2344 9.34739 25.3301 8.254 22.3506 7.18794C23.3529 7.15149 24.3551 7.06038 25.3483 7.09682C25.6672 7.10594 26.0681 7.37017 26.2595 7.64352C27.3255 9.13783 27.9907 10.7779 27.772 12.664C27.7538 12.8645 27.69 13.0558 27.6444 13.2563V13.2472Z" fill="#FEFAF4"/>
<path d="M15.6082 32.8555C15.9635 32.8737 16.328 32.8555 16.6834 32.9193C16.82 32.9375 16.9294 33.1197 17.0569 33.229C16.9203 33.3293 16.7471 33.5297 16.6378 33.5024C16.246 33.3931 15.8724 33.2108 15.4897 33.0559C15.5262 32.9921 15.5626 32.9193 15.5991 32.8555H15.6082Z" fill="#FEFAF4"/>
<path d="M24.1367 11.2883C24.1549 12.0993 24.1731 12.8829 24.1822 13.5936C23.6629 12.9649 23.6082 11.9535 24.1367 11.2883Z" fill="#BF491F"/>
</g>
<defs>
<clipPath id="clip0_248_3957">
<rect width="40" height="40" fill="white" transform="translate(0 0.5)"/>
</clipPath>
</defs>
</svg>
