<svg width="40" height="40" viewBox="0 0 40 40" fill="none" xmlns="http://www.w3.org/2000/svg">
<g clip-path="url(#clip0_535_6432)">
<path d="M40.0001 20.2187C39.9722 31.2164 30.9688 40.0456 19.8561 40C8.86423 39.9454 -0.0370501 30.9795 0.000115964 19.9909C0.037282 8.78363 8.79919 -0.018195 19.8933 2.82456e-05C31.1639 0.0182515 40.0373 8.94764 40.0094 20.2187" fill="#FEFAF4"/>
<g clip-path="url(#clip1_535_6432)">
<path d="M24.8657 25.753C24.7451 25.7413 24.6289 25.73 24.5083 25.7183C22.8901 25.5703 23.3907 25.5988 23.5 24C23.6406 21.9772 23.5057 21.2801 25 20C25.6101 19.4793 26.8332 18.0767 27.4429 17.5605C27.75 17.3026 28.0488 17.0349 28.3142 16.7324C29.3111 15.6064 29.344 14.3104 28.4144 13.4919C27.3712 12.568 25.5504 12.6655 24.6705 13.731C24.359 14.1099 24.1408 14.5652 23.8761 14.9801C23.1982 16.0517 22.0789 16.3387 20.9765 15.7282C19.9267 15.1363 19.4994 13.917 20.0387 12.832C20.9902 10.9193 22.5463 9.71718 24.6202 9.23961C27.2158 8.64631 29.6017 9.18353 31.6554 10.9877C34.2458 13.2621 34.4248 16.8039 32.1238 19.2555C31.4594 19.9642 30.6828 20.5452 29.9104 21.1311C29.1381 21.717 28.3864 22.3274 27.7595 23.0757C27.2312 23.7078 26.4906 24.1539 26.5 25C26.5087 25.6122 26.592 25.9609 26.0852 25.8758C25.6851 25.81 25.2768 25.7929 24.8702 25.7534L24.8657 25.753Z" fill="#BF491F"/>
<path d="M24.1692 32.8057C22.7894 32.6822 21.7395 31.4507 21.8458 30.084C21.9477 28.7064 23.2304 27.6292 24.5881 27.7712C25.9099 27.9098 26.97 29.2144 26.8542 30.57C26.735 31.9716 25.5738 32.942 24.1688 32.8108L24.1692 32.8057Z" fill="#BF491F"/>
</g>
<path d="M10.3538 13.2267C10.7489 12.9875 10.6474 12.6996 10.6587 12.4279C10.6928 11.5643 10.7042 10.7006 10.7326 9.83692C10.7383 9.61391 10.823 9.35848 11.2802 9.33019C11.7657 9.3019 11.743 9.5979 11.7995 9.7601C12.0928 10.6279 12.3184 11.5038 12.5891 12.3756C12.6568 12.5946 12.5777 12.9676 13.0744 12.9556C13.6841 12.9395 13.5204 12.5583 13.5374 12.319C13.5884 11.4757 13.5773 10.6363 13.6339 9.79292C13.6452 9.59423 13.5945 9.282 14.0743 9.25372C14.5879 9.22544 14.554 9.54982 14.6273 9.73635C15.3685 11.2922 17.053 14.0676 17.4997 15.5C18.1723 17.4238 16.7605 20.4192 14.4574 21.177C13.7179 21.4201 13.921 21.6959 14 22C15.1563 26.2051 15.7079 26.5115 16.8698 30.7165C16.9488 30.9923 16.8489 31.5798 16.8432 31.8555C16.8204 32.634 15.7535 33.2623 14.3875 33.335C13.0949 33.4037 11.8137 32.9087 11.5034 32.1869C11.3793 31.8949 11.3568 31.5868 11.3456 31.2867C11.2279 26.9886 11.905 26.2774 11.8212 21.9793C11.8157 21.6265 11.6294 21.5292 11.0424 21.4398C8.50248 21.046 6.7963 17.9062 6.83611 16.4627C6.88724 14.8206 7.72374 11.7299 7.9047 10.0918C7.92732 9.89717 7.89351 9.59305 8.40716 9.58911C8.92081 9.58921 8.87559 9.89737 8.93764 10.088C9.2197 10.8909 9.43402 11.7059 9.72172 12.5088C9.81198 12.7603 9.73289 13.0887 10.3481 13.2226L10.3538 13.2267Z" fill="#357900"/>
</g>
<defs>
<clipPath id="clip0_535_6432">
<rect width="40" height="40.0002" fill="white"/>
</clipPath>
<clipPath id="clip1_535_6432">
<rect width="14.0243" height="23.9627" fill="white" transform="matrix(0.995325 0.0965826 -0.0737754 0.997275 20.2036 8.35254)"/>
</clipPath>
</defs>
</svg>
