<svg width="32" height="32" viewBox="0 0 32 32" fill="none" xmlns="http://www.w3.org/2000/svg">
<path d="M7.9999 17.5999C7.57556 17.5999 7.16859 17.4313 6.86853 17.1313C6.56847 16.8312 6.3999 16.4242 6.3999 15.9999C6.3999 15.5756 6.56847 15.1686 6.86853 14.8685C7.16859 14.5685 7.57556 14.3999 7.9999 14.3999H23.9999C24.4242 14.3999 24.8312 14.5685 25.1313 14.8685C25.4313 15.1686 25.5999 15.5756 25.5999 15.9999C25.5999 16.4242 25.4313 16.8312 25.1313 17.1313C24.8312 17.4313 24.4242 17.5999 23.9999 17.5999H7.9999Z" fill="#39393C"/>
<path d="M14.3999 7.9999C14.3999 7.57556 14.5685 7.16859 14.8685 6.86853C15.1686 6.56847 15.5756 6.3999 15.9999 6.3999C16.4242 6.3999 16.8312 6.56847 17.1313 6.86853C17.4313 7.16859 17.5999 7.57556 17.5999 7.9999V23.9999C17.5999 24.4242 17.4313 24.8312 17.1313 25.1313C16.8312 25.4313 16.4242 25.5999 15.9999 25.5999C15.5756 25.5999 15.1686 25.4313 14.8685 25.1313C14.5685 24.8312 14.3999 24.4242 14.3999 23.9999V7.9999Z" fill="#39393C"/>
</svg>
