<svg width="41" height="41" viewBox="0 0 41 41" fill="none" xmlns="http://www.w3.org/2000/svg">
<g clip-path="url(#clip0_248_4036)">
<path d="M40.5002 20.4728C40.5458 31.4773 31.6509 40.4636 20.6828 40.5002C9.67825 40.5458 0.536703 31.6143 0.500173 20.7833C0.454511 9.62346 9.44994 0.545836 20.6006 0.500173C31.5047 0.454511 40.4545 9.43168 40.5002 20.4728Z" fill="#FEFAF4"/>
<path d="M35.1942 18.2168C27.7604 20.162 22.8654 24.3081 18.0526 28.5273C19.1576 26.8743 20.2353 25.2579 21.3677 23.5775C22.3083 23.541 23.5777 23.1026 24.3448 22.5181C24.4636 22.4268 24.6919 22.3994 24.8471 22.3264C26.2535 21.678 27.6599 21.0204 29.0572 20.3629C28.9658 20.2533 28.8654 20.1528 28.7741 20.0433C27.7878 20.4725 26.7923 20.8926 25.806 21.3218C25.7786 21.2944 25.7512 21.2761 25.7238 21.2487C26.0069 21.0296 26.2809 20.8104 26.564 20.5912C26.5001 20.5273 26.4362 20.4725 26.3722 20.4086C25.4042 20.8104 24.4453 21.2213 23.459 21.6414C23.4407 21.5958 23.4042 21.4679 23.2763 21.0935C22.427 21.5775 21.7695 21.9519 21.1211 22.3264C21.2307 22.4177 21.3403 22.4999 21.4499 22.5912C21.5321 22.1346 21.6234 21.6688 21.7056 21.2122C22.1531 18.5729 21.6599 15.9885 20.9293 13.4131C21.112 13.7602 21.3494 14.1072 21.459 14.4633C21.733 15.4314 21.8517 16.4451 23.2672 17.0204C23.4225 17.0844 23.5686 17.3035 23.5412 17.4314C23.3951 18.0615 23.1942 18.6825 22.9567 19.477C22.7467 19.0844 22.6279 18.856 22.5092 18.6277C22.4453 18.6277 22.3905 18.6369 22.3266 18.646C22.2261 19.5227 22.1348 20.3903 22.0161 21.4679C22.8837 20.6917 24.1531 20.6277 24.5823 19.6232C24.8837 18.92 26.1165 18.4268 26.9202 17.8332C26.9932 17.7784 27.0115 17.6962 27.0846 17.5866C26.8289 17.5136 26.6097 17.4497 25.9795 17.2761C28.2992 16.2442 30.3631 15.3218 32.427 14.3994C32.3996 14.3446 32.3631 14.2898 32.3357 14.235C31.2398 14.5181 30.1439 14.8012 29.048 15.0844L28.8654 14.9017C30.1622 14.2259 31.4499 13.5501 32.7101 12.8926C32.5092 12.8286 32.1713 12.7191 31.806 12.5912C32.0161 12.1072 32.217 11.6597 32.4818 11.0478C31.7421 11.4314 31.2216 11.7145 30.6919 11.9885C30.5549 11.7784 30.4362 11.5866 30.3357 11.4131C29.6599 12.4907 28.9841 13.5592 28.3174 14.6186C28.2261 14.5912 28.1348 14.5638 28.0435 14.5364C28.217 14.1346 28.3905 13.7328 28.5549 13.3218C28.4636 13.3035 28.3722 13.2761 28.2718 13.2579C27.5777 14.2898 26.8837 15.3309 26.1987 16.3629C26.1074 16.3355 26.0252 16.3081 25.9339 16.2807C25.9978 15.9793 26.0617 15.6688 26.1348 15.3218C24.4636 15.8606 25.2672 17.1939 24.2626 18.025C23.3585 16.1528 24.6279 15.1118 26.8745 14.3812C26.354 14.1802 26.1531 14.1072 25.943 14.025C26.4636 13.5318 26.9384 13.0844 27.4133 12.646C27.3494 12.6095 27.2855 12.5638 27.2215 12.5273C26.9019 12.6643 26.5823 12.8012 26.2626 12.9382C26.217 12.9017 26.1805 12.8743 26.1348 12.8378C26.5184 12.372 26.9019 11.9063 27.2763 11.4405C27.1394 11.3583 26.9932 11.2761 26.8563 11.2031C26.3814 11.7328 25.8974 12.2533 25.4225 12.783C25.2398 12.6825 25.048 12.5821 24.8654 12.4725C25.6416 11.3766 26.427 10.2807 27.2033 9.19394C27.1211 9.16655 27.0298 9.13002 26.9476 9.10262C26.491 9.50445 26.0435 9.90627 25.5868 10.3172C25.5412 10.2898 25.5047 10.2716 25.459 10.2442C25.9339 9.13915 26.4088 8.03413 26.8837 6.91997C26.7832 6.88344 26.6827 6.84691 26.5914 6.81038C25.9887 7.35833 25.3951 7.90627 24.6462 8.5912C25.0663 7.23047 25.4499 6.00673 25.8243 4.78298C25.5777 4.90171 25.3129 5.02956 25.0206 5.16655C24.8106 4.75559 24.6279 4.40856 24.4544 4.06152C24.3722 4.06152 24.29 4.07066 24.2079 4.07979C24.1165 4.44509 24.0343 4.81951 23.9247 5.267C23.5321 4.81951 23.2124 4.46335 22.8928 4.10719C22.8197 4.12545 22.7467 4.15285 22.6827 4.17111C22.9841 5.15741 23.2855 6.13458 23.6234 7.24874C22.975 6.89257 22.5184 6.646 22.0526 6.39942C21.9887 6.44509 21.9339 6.48161 21.87 6.52728C22.6097 7.42225 23.3585 8.31723 24.0983 9.22134C23.9704 9.28527 23.8426 9.3492 23.7238 9.41312C23.2033 9.05696 22.6736 8.70079 21.8974 8.17111C22.8837 9.33093 23.6964 10.2898 24.5092 11.2579C24.4453 11.2944 24.3814 11.3309 24.3174 11.3675C23.7786 11.0478 23.2307 10.7282 22.6919 10.4086C22.5823 10.4542 22.4818 10.4907 22.3722 10.5364C22.7558 11.1391 23.1668 11.7328 23.5138 12.3446C23.733 12.7373 24.1805 13.2944 23.9704 13.5318C23.4225 14.1437 23.1302 14.7099 23.4407 15.4588C22.975 14.993 22.3996 14.4999 22.4636 14.0524C22.5823 13.1757 22.2809 12.8104 21.0298 12.9108C20.9932 13.0935 20.9658 13.2853 20.9293 13.4679C20.564 12.7282 20.2444 11.9611 19.806 11.2396C19.5503 10.8286 19.1028 10.4725 18.7375 10.0981C18.6188 10.1346 18.5092 10.162 18.3905 10.1985C18.0891 11.2944 17.7878 12.3903 17.4864 13.4862C17.6873 12.3264 16.8289 11.4679 15.7695 10.3994C15.9887 11.3675 16.1531 12.0798 16.3174 12.8012H16.1074C15.1759 11.6688 14.2535 10.5181 13.322 9.37659C13.2489 9.40399 13.1668 9.43139 13.0937 9.45878C13.3129 9.90627 13.5321 10.3538 13.7512 10.8104C13.669 10.8378 13.596 10.8652 13.5138 10.9017C12.7467 10.0433 11.9795 9.18481 11.1302 8.23504C11.1759 8.63687 11.2124 8.94737 11.2489 9.23961C10.5914 8.97477 9.94301 8.70993 9.29461 8.45422C9.25808 8.49988 9.21242 8.54554 9.17589 8.5912C9.53205 9.03869 9.87908 9.48618 10.2718 9.98846C9.84256 10.0341 9.51379 10.0707 9.12109 10.1072C10.4179 10.5364 11.6325 10.9382 12.8471 11.3401C11.0633 11.1513 9.97345 11.1361 9.57771 11.2944C11.596 11.678 14.3905 12.7739 14.7558 13.3583C13.6508 13.057 12.5823 12.7647 11.5229 12.4725C11.4864 12.5364 11.459 12.5912 11.4225 12.6551C12.1165 12.9291 12.8106 13.2122 13.5868 13.5227C13.1302 13.7328 12.8106 13.888 12.4544 14.0524C13.6508 14.509 14.7284 14.92 16.0983 15.4405C15.3037 15.3949 14.8654 15.3766 14.427 15.3492C14.4088 15.404 14.3905 15.4588 14.3722 15.5136C15.1394 15.8606 15.9065 16.2168 16.6736 16.5638C17.7604 15.2213 16.0617 14.6825 15.0389 13.9519L15.2763 13.8241C15.8334 14.0707 16.3905 14.3172 16.975 14.5729C17.1668 14.1711 17.3403 13.8241 17.5138 13.4679C17.4133 14.3994 17.2124 15.3309 17.2216 16.2624C17.2489 18.4086 17.3859 20.5547 17.4773 22.6917C17.3129 21.8241 17.1302 20.9656 16.9841 20.0981C16.8015 19.0296 16.701 17.9519 15.4316 17.1483C15.5595 17.6232 15.6964 18.0981 15.8243 18.5729C15.322 18.2076 14.9293 17.8058 14.6005 17.3766C14.29 16.9839 14.0526 16.5638 13.7786 16.162C13.6873 16.1894 13.6051 16.2168 13.5138 16.2442C13.5686 16.5273 13.6142 16.8104 13.6599 17.0387C12.9202 17.3218 12.1257 16.3629 11.5047 17.1939C12.427 17.7054 13.3037 18.1985 14.2444 18.7191C13.733 18.8378 13.3677 18.92 12.7375 19.057C15.2763 19.3035 16.5366 20.0159 16.5731 21.0935C15.7421 20.8195 15.1759 20.025 13.9704 20.3994C14.7101 21.1939 15.3768 21.9428 16.0891 22.6551C16.2809 22.8469 16.5914 23.0113 16.9019 23.0935C17.5047 23.2579 17.5503 22.993 17.4499 22.6643C17.7056 23.5592 17.9613 24.4451 18.2079 25.3401C18.1439 25.3401 18.08 25.3583 18.0161 25.3583C17.806 24.7282 17.6051 24.0889 17.3951 23.4588C17.2672 23.4314 17.1394 23.4131 17.0115 23.3857C16.8197 23.678 16.4818 23.9793 16.4727 24.2716C16.4636 25.0387 16.6553 25.8058 16.6645 26.5821C16.6645 27.2487 16.5458 27.9245 16.4727 28.5912L16.1805 28.5638C15.8974 27.267 15.6234 25.9702 15.3403 24.6643C15.2307 24.6643 15.1302 24.6643 15.0206 24.6734C14.9384 25.0935 14.8654 25.5136 14.7832 25.9337C14.7193 25.9337 14.6553 25.9519 14.5914 25.9611C14.3722 25.0022 14.1622 24.0433 13.943 23.0844C13.8791 23.0844 13.8243 23.0935 13.7604 23.1026C13.6234 23.4497 13.4955 23.8058 13.2672 24.3903C13.048 23.2944 12.8745 22.436 12.701 21.5775C12.6097 21.5775 12.5184 21.5775 12.4362 21.5866C12.3174 21.888 12.2079 22.1802 12.0983 22.4725C11.6508 22.2898 11.2672 22.1255 10.8745 21.9611C10.9019 22.4816 11.1394 22.856 11.3403 23.2305C11.5321 23.5958 11.6964 23.9793 11.943 24.4999C11.4042 24.3264 11.1211 24.235 10.8289 24.1437C10.7832 24.1894 10.7375 24.235 10.6919 24.2807C11.5503 24.8104 12.4179 25.3492 13.2763 25.8789C13.2216 25.9337 13.1668 25.9976 13.112 26.0524C12.7284 25.9885 12.3448 25.9154 12.0891 25.8789C12.9202 26.6551 13.806 27.4588 14.6827 28.2716C14.5914 28.3172 14.5092 28.3629 14.4179 28.4086C14.0526 28.3264 13.6964 28.2442 13.3311 28.1711C13.7512 28.6003 14.2718 28.8834 14.7375 29.2122C15.5138 29.751 15.8426 30.2807 15.1668 31.0935C14.1165 32.3629 13.3037 33.7236 12.3631 35.0935C13.048 35.2853 13.5777 35.4314 14.1987 35.6049C14.4727 35.0478 14.7558 34.5638 14.9384 34.0707C15.6234 32.2533 17.0298 31.1483 19.6416 30.3355C26.4727 28.2076 31.6416 24.6825 34.8745 19.8423" fill="#FEFAF4"/>
<path d="M29.3769 18.7373C30.6463 18.4085 31.7604 18.1163 33.1394 17.751C32.5549 17.4405 32.3084 17.3035 32.0435 17.1573C32.418 17.0112 32.765 16.8742 33.112 16.7281C33.0572 16.6459 33.0024 16.5729 32.9476 16.4907C32.2536 16.7373 31.5686 16.9747 30.8928 17.2213C31.1942 16.7373 31.5047 16.2258 31.8152 15.7144C31.7148 15.6779 31.6143 15.6414 31.5138 15.5957C30.628 16.308 29.7513 17.0295 28.8654 17.7418C28.8106 17.7144 28.7558 17.6779 28.7011 17.6505C28.9202 17.3309 29.1303 17.0112 29.3769 16.6642C27.6326 17.1939 28.1074 18.9199 26.2536 19.3583C26.5732 18.9564 26.8654 18.5911 27.1485 18.2258C27.039 18.1802 26.9294 18.1345 26.8198 18.0889C26.2444 18.6916 25.6691 19.2852 25.0938 19.8879C25.1851 19.9701 25.2855 20.0432 25.3769 20.1254C26.9202 19.7966 28.4727 19.4678 30.217 19.0934C29.7969 18.9016 29.6052 18.8194 29.3951 18.719L29.3769 18.7373Z" fill="#FEFAF4"/>
<path d="M18.1986 8.93823C19.4224 9.74189 20.6279 10.5273 21.8333 11.3218C21.9429 11.2944 22.0525 11.2579 22.1621 11.2305C21.7146 10.1346 21.2763 9.04782 20.8288 7.95193C20.7283 7.9702 20.6187 7.98846 20.5183 8.00673L20.5913 9.13915C20.4817 9.13915 20.3813 9.13915 20.2717 9.13915C20.1438 8.33549 20.0251 7.53184 19.8881 6.66426C19.742 6.93823 19.6324 7.15741 19.5228 7.35833C19.0114 7.10262 18.5457 6.86517 18.1164 6.646C17.9703 6.9565 17.8333 7.2396 17.6689 7.59577C17.9521 7.89714 18.3265 8.3081 18.7009 8.70992C18.3904 8.84691 18.1804 8.94737 18.1986 8.93823Z" fill="#FEFAF4"/>
<path d="M22.2444 12.2624C21.6417 11.7967 21.1759 11.4405 20.5275 10.9382C20.5092 12.2259 20.6188 12.3172 22.2444 12.2624Z" fill="#FEFAF4"/>
<path d="M34.92 19.8059C31.6871 24.6461 26.5181 28.1712 19.6871 30.2991C17.0752 31.1119 15.6688 32.226 14.9839 34.0342C14.7921 34.5274 14.5181 35.0114 14.2442 35.5685C13.6231 35.395 13.0935 35.2488 12.4085 35.0571C13.3583 33.6872 14.1711 32.3173 15.2122 31.0571C15.8789 30.2534 15.5592 29.7237 14.783 29.1758C14.3172 28.847 13.8058 28.5639 13.3766 28.1347C13.7419 28.2169 14.098 28.2991 14.4633 28.3721C14.5547 28.3265 14.6368 28.2808 14.7282 28.2351C13.8515 27.4224 12.9747 26.6096 12.1346 25.8424C12.3903 25.8881 12.7738 25.952 13.1574 26.016C13.2122 25.9612 13.267 25.8972 13.3218 25.8424C12.4633 25.3128 11.5958 24.774 10.7373 24.2443C10.783 24.1986 10.8286 24.1529 10.8743 24.1073C11.1574 24.1986 11.4496 24.2899 11.9884 24.4634C11.7419 23.9338 11.5866 23.5593 11.3857 23.194C11.1848 22.8196 10.9474 22.4452 10.92 21.9246C11.3035 22.089 11.6962 22.2534 12.1437 22.4361C12.2533 22.1438 12.372 21.8424 12.4816 21.5502C12.5729 21.5502 12.6642 21.5502 12.7464 21.5411C12.92 22.3995 13.0935 23.258 13.3126 24.3539C13.541 23.7694 13.6688 23.4132 13.8058 23.0662C13.8697 23.0662 13.9245 23.0571 13.9884 23.0479C14.2076 24.0068 14.4177 24.9657 14.6368 25.9246C14.7008 25.9246 14.7647 25.9064 14.8286 25.8972C14.9108 25.4771 14.9839 25.0571 15.0661 24.637C15.1757 24.637 15.2761 24.637 15.3857 24.6278C15.6688 25.9246 15.9428 27.2214 16.2259 28.5274L16.5181 28.5548C16.5821 27.8881 16.719 27.2123 16.7099 26.5456C16.7008 25.7785 16.509 25.0114 16.5181 24.2351C16.5181 23.9429 16.8652 23.6415 17.0569 23.3493C17.1848 23.3767 17.3126 23.395 17.4405 23.4224C17.6505 24.0525 17.8515 24.6918 18.0615 25.3219C18.1254 25.3219 18.1894 25.3036 18.2533 25.3036C17.9976 24.4087 17.7419 23.5228 17.4953 22.6278L17.5136 22.6461C17.4222 20.5 17.2853 18.3539 17.2579 16.2077C17.2487 15.2762 17.4405 14.3447 17.5501 13.4132L17.5227 13.4406C17.8241 12.3447 18.1254 11.2488 18.4268 10.1529C18.5455 10.1164 18.6551 10.089 18.7738 10.0525C19.1391 10.4361 19.5866 10.7831 19.8423 11.194C20.2807 11.9155 20.6003 12.6735 20.9656 13.4224L20.9291 13.395C21.6688 15.9703 22.162 18.5548 21.7053 21.194C21.6231 21.6507 21.541 22.1164 21.4496 22.573C21.34 22.4817 21.2305 22.3995 21.1209 22.3082C21.7784 21.9338 22.4268 21.5593 23.2761 21.0753C23.404 21.4589 23.4405 21.5867 23.4588 21.6233C24.4451 21.2032 25.4131 20.8013 26.372 20.3904C26.4359 20.4543 26.4999 20.5091 26.5638 20.573C26.2807 20.7922 26.0067 21.0114 25.7236 21.2306C25.751 21.258 25.7784 21.2762 25.8058 21.3036C26.7921 20.8744 27.7875 20.4543 28.7738 20.0251C28.8652 20.1347 28.9656 20.2351 29.0569 20.3447C27.6505 21.0023 26.2533 21.6598 24.8469 22.3082C24.6916 22.3813 24.4633 22.4087 24.3446 22.5C23.5775 23.0845 22.3081 23.5228 21.3674 23.5593C20.2442 25.2397 19.1574 26.8561 18.0524 28.5091C22.8743 24.2808 27.7601 20.1438 35.1939 18.1986" fill="#357900"/>
<path d="M19.1577 29.2854C24.7924 26.6827 29.3769 23.2854 33.5961 19.6233C28.7833 22.847 23.9705 26.0708 19.1577 29.2854Z" fill="#357900"/>
<path d="M19.3676 24.162C20.0252 20.299 19.6599 16.4543 18.9658 12.6187L19.3676 24.162Z" fill="#357900"/>
<path d="M20.9385 13.4406C20.975 13.2579 21.0024 13.0661 21.0389 12.8835C22.2901 12.783 22.5914 13.1483 22.4727 14.025C22.4088 14.4725 22.9841 14.9657 23.4499 15.4314C23.1303 14.6917 23.4316 14.1164 23.9796 13.5045C24.1896 13.2671 23.7421 12.71 23.523 12.3173C23.1759 11.7054 22.765 11.1118 22.3814 10.5091C22.491 10.4634 22.5914 10.4269 22.701 10.3812C23.2398 10.7008 23.7878 11.0205 24.3266 11.3401C24.3905 11.3036 24.4545 11.2671 24.5184 11.2305C23.7056 10.2716 22.8928 9.31272 21.9065 8.14377C22.6828 8.67345 23.2033 9.02961 23.733 9.38578C23.8609 9.32185 23.9887 9.25792 24.1074 9.194C23.3677 8.29902 22.6188 7.40404 21.8791 6.49993C21.943 6.45427 21.9978 6.41774 22.0618 6.37208C22.5184 6.61865 22.975 6.87436 23.6325 7.22139C23.2946 6.10724 22.9933 5.12094 22.6919 4.14377C22.765 4.1255 22.838 4.09811 22.9019 4.07984C23.2216 4.43601 23.5321 4.79217 23.9339 5.23966C24.0435 4.79217 24.1257 4.41774 24.217 4.05244C24.2992 4.05244 24.3814 4.04331 24.4636 4.03418C24.6371 4.38121 24.8198 4.71911 25.0298 5.1392C25.322 5.00222 25.5777 4.87436 25.8335 4.75564C25.4499 5.97939 25.0755 7.20313 24.6554 8.56386C25.3951 7.87893 25.9978 7.33098 26.6006 6.78304C26.701 6.81957 26.8015 6.8561 26.8928 6.89263C26.4179 7.99765 25.943 9.10267 25.4682 10.2168C25.5138 10.2442 25.5503 10.2625 25.596 10.2899C26.0526 9.88806 26.5001 9.48624 26.9567 9.07528C27.0389 9.10267 27.1303 9.1392 27.2125 9.1666C26.4362 10.2625 25.6508 11.3584 24.8746 12.4451C25.0572 12.5456 25.249 12.6461 25.4316 12.7556C25.9065 12.226 26.3905 11.7054 26.8654 11.1757C27.0024 11.2579 27.1485 11.3401 27.2855 11.4132C26.9019 11.8789 26.5184 12.3447 26.144 12.8104C26.1896 12.847 26.2261 12.8744 26.2718 12.9109C26.5914 12.7739 26.9111 12.6369 27.2307 12.4999C27.2946 12.5365 27.3586 12.5821 27.4225 12.6187C26.9476 13.0661 26.4819 13.5045 25.9522 13.9977C26.1622 14.0798 26.3723 14.1529 26.8837 14.3538C24.628 15.0844 23.3586 16.1255 24.2718 17.9977C25.2672 17.1666 24.4727 15.8241 26.144 15.2945C26.0709 15.6506 26.007 15.952 25.943 16.2534C26.0344 16.2808 26.1166 16.3082 26.2079 16.3356C26.9019 15.3036 27.596 14.2625 28.2809 13.2305C28.3723 13.2488 28.4636 13.2762 28.564 13.2945C28.3905 13.6963 28.217 14.0981 28.0526 14.5091C28.144 14.5365 28.2353 14.5639 28.3266 14.5913C28.9933 13.5228 29.6691 12.4634 30.3449 11.3858C30.4545 11.5502 30.5732 11.7419 30.701 11.9611C31.2398 11.678 31.7604 11.404 32.491 11.0205C32.2261 11.6324 32.0252 12.0798 31.8152 12.5639C32.1805 12.6826 32.5184 12.7922 32.7193 12.8652C31.459 13.5228 30.1714 14.1986 28.8746 14.8744L29.0572 15.057C30.1531 14.7739 31.249 14.4908 32.3449 14.2077C32.3723 14.2625 32.4088 14.3173 32.4362 14.3721C30.3723 15.2945 28.3083 16.2168 25.9887 17.2488C26.6188 17.4223 26.8472 17.4862 27.0937 17.5593C27.0207 17.6689 27.0024 17.7602 26.9293 17.8059C26.1166 18.3995 24.8928 18.8926 24.5914 19.5958C24.1622 20.5913 22.8928 20.6643 22.0252 21.4406C22.144 20.3629 22.2444 19.4954 22.3357 18.6187C22.3997 18.6187 22.4545 18.6095 22.5184 18.6004C22.6371 18.8287 22.7558 19.057 22.9659 19.4497C23.2033 18.6552 23.4042 18.0342 23.5503 17.404C23.5777 17.2762 23.4316 17.057 23.2764 16.9931C21.8609 16.4177 21.7421 15.4132 21.4682 14.436C21.3677 14.0707 21.1211 13.7328 20.9385 13.3858L20.9659 13.4132L20.9385 13.4406Z" fill="#357900"/>
<path d="M17.5231 13.4223C17.3495 13.7785 17.176 14.1347 16.9843 14.5274C16.3998 14.2716 15.8427 14.0251 15.2856 13.7785L15.0482 13.9063C16.071 14.6369 17.7696 15.1758 16.6829 16.5182C15.9158 16.1712 15.1486 15.8242 14.3815 15.468C14.3998 15.4132 14.418 15.3584 14.4363 15.3036C14.8747 15.331 15.313 15.3493 16.1075 15.3949C14.7377 14.8744 13.6601 14.4634 12.4637 14.0068C12.829 13.8333 13.1486 13.6872 13.5961 13.4771C12.8199 13.1666 12.1258 12.8926 11.4317 12.6095C11.4683 12.5456 11.4957 12.4908 11.5322 12.4269C12.5916 12.7191 13.6601 13.0114 14.7651 13.3127C14.3998 12.7283 11.6053 11.6324 9.58699 11.2488C9.97664 11.0905 11.0664 11.1057 12.8564 11.2945C11.6418 10.8926 10.4272 10.4908 9.13037 10.0616C9.52307 10.0159 9.85183 9.98854 10.2811 9.94288C9.88836 9.44059 9.5322 8.99311 9.18517 8.54562C9.2217 8.49996 9.26736 8.45429 9.30389 8.40863C9.95229 8.67347 10.6007 8.92918 11.2582 9.19402C11.2217 8.89265 11.1852 8.59128 11.1395 8.18945C11.9888 9.13922 12.7559 9.99767 13.5231 10.8561C13.6053 10.8287 13.6783 10.8013 13.7605 10.7648C13.5413 10.3173 13.3222 9.86982 13.103 9.4132C13.176 9.3858 13.2582 9.3584 13.3313 9.33101C14.2628 10.4726 15.1852 11.6232 16.1167 12.7648H16.3267C16.1623 12.0342 15.998 11.3219 15.7788 10.3538C16.8381 11.4223 17.7057 12.2808 17.5048 13.4406L17.5322 13.4132L17.5231 13.4223Z" fill="#357900"/>
<path d="M17.4774 22.6278C17.5779 22.9565 17.5322 23.2214 16.9295 23.057C16.619 22.9748 16.3085 22.8104 16.1167 22.6186C15.4044 21.9063 14.7468 21.1666 13.998 20.3629C15.2035 19.9885 15.7697 20.783 16.6007 21.057C16.5642 19.9794 15.3039 19.267 12.7651 19.0205C13.3861 18.8743 13.7605 18.7922 14.272 18.6826C13.3313 18.1529 12.4546 17.6689 11.5322 17.1575C12.1624 16.3264 12.9569 17.2944 13.6875 17.0022C13.6418 16.7739 13.5962 16.4908 13.5414 16.2077C13.6327 16.1803 13.7149 16.1529 13.8062 16.1255C14.0802 16.5364 14.3176 16.9474 14.6281 17.3401C14.9569 17.7602 15.3496 18.162 15.8519 18.5364C15.724 18.0616 15.587 17.5867 15.4592 17.1118C16.7194 17.9154 16.8199 19.0022 17.0117 20.0616C17.1578 20.9291 17.3404 21.7876 17.5048 22.6552L17.4866 22.6369L17.4774 22.6278Z" fill="#357900"/>
<path d="M29.3766 18.7373C29.5866 18.8378 29.7784 18.9199 30.1985 19.1117C28.4542 19.4862 26.9108 19.8149 25.3583 20.1437C25.267 20.0615 25.1665 19.9884 25.0752 19.9063C25.6505 19.3035 26.2259 18.7099 26.8012 18.1072C26.9108 18.1528 27.0204 18.1985 27.13 18.2442C26.8469 18.6094 26.5546 18.9656 26.235 19.3766C28.0889 18.9291 27.614 17.2031 29.3583 16.6825C29.1209 17.0295 28.9017 17.3492 28.6825 17.6688C28.7373 17.6962 28.7921 17.7327 28.8469 17.7601C29.7327 17.0478 30.6094 16.3263 31.4953 15.614C31.5957 15.6505 31.6962 15.6871 31.7967 15.7327C31.4862 16.2442 31.1757 16.7464 30.8743 17.2396C31.5501 17.0021 32.235 16.7556 32.9291 16.509C32.9839 16.5912 33.0387 16.6642 33.0935 16.7464C32.7464 16.8834 32.3994 17.0204 32.025 17.1757C32.2898 17.3218 32.5364 17.4496 33.1209 17.7693C31.7419 18.1254 30.6277 18.4177 29.3583 18.7556L29.3766 18.7373Z" fill="#357900"/>
<path d="M18.1986 8.93823C18.1986 8.93823 18.3995 8.84691 18.7009 8.70992C18.3265 8.3081 17.9521 7.89714 17.6689 7.59577C17.8425 7.2396 17.9794 6.94737 18.1164 6.646C18.5457 6.86517 19.0114 7.10262 19.5228 7.35833C19.6324 7.15741 19.742 6.93823 19.8881 6.66426C20.0251 7.53184 20.1438 8.33549 20.2717 9.13915C20.3813 9.13915 20.4817 9.13915 20.5913 9.13915L20.5183 8.00673C20.6187 7.98846 20.7283 7.9702 20.8288 7.95193C21.2763 9.04782 21.7146 10.1346 22.1621 11.2305C22.0525 11.2579 21.9429 11.2944 21.8333 11.3218C20.6279 10.5273 19.4224 9.74189 18.1986 8.93823Z" fill="#357900"/>
<path d="M22.2444 12.2624C20.6188 12.3172 20.5092 12.2259 20.5275 10.9382C21.1759 11.4405 21.6417 11.7967 22.2444 12.2624Z" fill="#357900"/>
<path d="M19.1577 29.2854C23.9705 26.0616 28.7833 22.8379 33.5961 19.6233C29.3769 23.2945 24.7924 26.6827 19.1577 29.2854Z" fill="#FEFAF4"/>
<path d="M19.3676 24.162L18.9658 12.6187C19.6599 16.4543 20.0252 20.299 19.3676 24.162Z" fill="#FEFAF4"/>
</g>
<defs>
<clipPath id="clip0_248_4036">
<rect width="40" height="40" fill="white" transform="translate(0.5 0.5)"/>
</clipPath>
</defs>
</svg>
