<svg width="40" height="41" viewBox="0 0 40 41" fill="none" xmlns="http://www.w3.org/2000/svg">
<g clip-path="url(#clip0_248_4047)">
<path d="M40.0001 20.7187C39.9722 31.7164 30.9688 40.5456 19.8561 40.5C8.86423 40.4454 -0.0370501 31.4795 0.000115964 20.4909C0.037282 9.28363 8.79919 0.481805 19.8933 0.500028C31.1639 0.518251 40.0373 9.44764 40.0094 20.7187" fill="#FEFAF4"/>
<path d="M36.0883 18.4863C31.3775 20.2449 28.2834 23.9806 25.2358 27.7893C25.9326 26.295 26.6202 24.8371 27.3356 23.3246C27.9303 23.2972 28.7387 22.8963 29.2218 22.3679C29.2962 22.2859 29.4355 22.2585 29.5377 22.1947C30.4297 21.6025 31.3124 21.0102 32.2044 20.418C32.1486 20.3269 32.0836 20.2266 32.0279 20.1355L30.151 21.2927C30.151 21.2927 30.1138 21.2471 30.0952 21.2289C30.2718 21.0285 30.4483 20.828 30.6248 20.6367C30.5877 20.582 30.5412 20.5273 30.5041 20.4726C29.8908 20.8371 29.2869 21.2016 28.655 21.5843C28.6457 21.5478 28.6179 21.4294 28.5435 21.0831C28.0046 21.5205 27.5958 21.8576 27.1777 22.1947C27.2427 22.2767 27.3171 22.3588 27.3821 22.4316C27.4378 22.0125 27.4936 21.6025 27.5401 21.1834C27.8281 18.8052 27.5122 16.4726 27.0476 14.1492C27.1591 14.4681 27.3171 14.7688 27.3821 15.0968C27.5586 15.9715 27.633 16.8827 28.525 17.402C28.6272 17.4567 28.7108 17.6572 28.7015 17.7665C28.6086 18.3314 28.4785 18.8963 28.3298 19.607C28.1998 19.2517 28.1254 19.0421 28.0511 18.8326C28.0139 18.8326 27.9768 18.8417 27.9303 18.8508C27.8653 19.6344 27.8095 20.4271 27.7352 21.3929C28.2834 20.6913 29.0824 20.6275 29.3612 19.7346C29.5563 19.1059 30.3275 18.6503 30.8385 18.1219C30.885 18.0763 30.8943 17.9943 30.9407 17.8941C30.7828 17.8303 30.6434 17.7756 30.2346 17.6116C31.7027 16.6822 33.0035 15.8531 34.3136 15.0148C34.295 14.9692 34.2764 14.9146 34.2578 14.869C33.561 15.1241 32.8734 15.3793 32.1765 15.6344L32.0557 15.4704C32.8734 14.8599 33.691 14.2494 34.4901 13.6572C34.36 13.5934 34.1556 13.4931 33.914 13.3838C34.0441 12.9465 34.1742 12.5455 34.3414 11.9897C33.8769 12.336 33.5424 12.5911 33.2079 12.8371C33.1243 12.6458 33.0499 12.4726 32.9849 12.3177C32.5575 13.2927 32.1301 14.2494 31.7119 15.2152C31.6562 15.1879 31.5912 15.1606 31.5354 15.1424C31.6469 14.7779 31.7491 14.4134 31.8606 14.049C31.8049 14.0307 31.7398 14.0125 31.6841 13.9943C31.2474 14.9328 30.8107 15.8622 30.3647 16.8007C30.3089 16.7733 30.2532 16.7551 30.1974 16.7278C30.2346 16.4544 30.2811 16.1811 30.3275 15.8622C29.2683 16.3451 29.7793 17.5478 29.1475 18.3041C28.5714 16.6184 29.3798 15.6799 30.8014 15.0148C30.4762 14.8326 30.3461 14.7688 30.2067 14.6959C30.5412 14.2494 30.8385 13.8485 31.1359 13.4476C31.0987 13.4111 31.0522 13.3747 31.0151 13.3383C30.8107 13.4567 30.6155 13.5843 30.4111 13.7027C30.3833 13.6754 30.3554 13.648 30.3275 13.6116C30.5691 13.1925 30.8107 12.7733 31.0522 12.3542C30.9593 12.2813 30.8757 12.2084 30.7828 12.1355C30.4762 12.6093 30.1788 13.0831 29.8722 13.5569C29.7514 13.4658 29.6399 13.3747 29.5191 13.2836C30.0116 12.2995 30.504 11.3064 30.9965 10.3223C30.9408 10.295 30.885 10.2676 30.8293 10.2403C30.5412 10.6048 30.2532 10.9692 29.9651 11.3337C29.9373 11.3155 29.9094 11.2881 29.8908 11.2699C30.1881 10.2676 30.4948 9.27447 30.7921 8.27219C30.727 8.23574 30.6713 8.20841 30.6063 8.17196C30.2253 8.66399 29.8444 9.16513 29.3798 9.77561C29.6492 8.54554 29.8908 7.44303 30.1231 6.34053C29.9651 6.44987 29.7979 6.55921 29.6121 6.68677C29.4727 6.31319 29.3612 6.0034 29.2497 5.6936C29.1939 5.6936 29.1475 5.6936 29.0917 5.70272C29.036 6.03985 28.9802 6.36786 28.9152 6.77789C28.6643 6.37697 28.4692 6.05807 28.2648 5.73916C28.2183 5.75739 28.1719 5.77561 28.1254 5.79383C28.3205 6.67766 28.5064 7.5706 28.7201 8.57287C28.3112 8.25397 28.0232 8.02618 27.7259 7.8075C27.6887 7.84395 27.6516 7.88039 27.6144 7.91684C28.0883 8.72777 28.5528 9.53871 29.0267 10.3405C28.9431 10.3952 28.8687 10.459 28.7851 10.5136C28.4506 10.1947 28.1254 9.86672 27.633 9.39292C28.2555 10.4408 28.7758 11.3064 29.2869 12.172C29.2497 12.1993 29.2032 12.2357 29.1661 12.2631C28.8223 11.9715 28.4785 11.689 28.1347 11.3975C28.0697 11.4339 28.0046 11.4704 27.9303 11.5068C28.1719 12.0535 28.432 12.5911 28.6457 13.1378C28.7851 13.4931 29.0732 13.9943 28.9338 14.213C28.59 14.7688 28.3949 15.279 28.5993 15.9442C28.302 15.525 27.9396 15.0786 27.9768 14.6685C28.0511 13.8758 27.8653 13.5478 27.0662 13.6389C27.0476 13.8029 27.0197 13.9761 27.0011 14.1401C26.7689 13.4658 26.5644 12.7824 26.2857 12.1355C26.1277 11.7619 25.8397 11.443 25.6074 11.1059C25.5331 11.1332 25.4588 11.1606 25.3844 11.197C25.1986 12.1811 25.0035 13.1742 24.8176 14.1674C24.9477 13.1196 24.3995 12.3451 23.7305 11.3884C23.8699 12.254 23.9721 12.9009 24.0743 13.5569H23.9442C23.3589 12.5364 22.7735 11.4977 22.1788 10.4681C22.1324 10.4954 22.0859 10.5136 22.0302 10.541C22.1696 10.951 22.3089 11.3519 22.4483 11.7619C22.4018 11.7893 22.3461 11.8166 22.2996 11.8439C21.8165 11.0695 21.3333 10.295 20.7944 9.43848C20.8223 9.80294 20.8502 10.0763 20.8687 10.3496C20.4506 10.1127 20.0418 9.87584 19.633 9.63893C19.6051 9.68449 19.5772 9.72094 19.5586 9.7665C19.7816 10.1674 20.0046 10.5774 20.2555 11.0239C19.9768 11.0695 19.7816 11.0968 19.5308 11.1332C20.3577 11.525 21.1196 11.8895 21.8908 12.2449C20.7572 12.0748 20.0697 12.0596 19.8281 12.1993C21.1103 12.5455 22.8757 13.5296 23.108 14.0581C22.4111 13.7847 21.7329 13.5205 21.0639 13.2562C21.0453 13.3109 21.0267 13.3656 20.9988 13.4203C21.4355 13.6663 21.8815 13.9214 22.374 14.2039C22.0859 14.3952 21.8815 14.5319 21.6585 14.6868C22.4111 15.0968 23.0987 15.4704 23.9628 15.9442C23.4611 15.9077 23.1823 15.8895 22.9036 15.8622C22.8943 15.9168 22.885 15.9624 22.8757 16.0171C23.3589 16.336 23.8513 16.6458 24.3345 16.9647C25.0221 15.7528 23.9442 15.2699 23.3031 14.6048L23.4518 14.4863C23.8049 14.705 24.1579 14.9328 24.5296 15.1606C24.6504 14.8052 24.7619 14.4772 24.8734 14.1583C24.8083 14.9966 24.6783 15.8348 24.6876 16.6822C24.7061 18.6139 24.7898 20.5547 24.8548 22.4863C24.7526 21.7027 24.6411 20.9282 24.5389 20.1446C24.4181 19.1788 24.3531 18.2039 23.554 17.484C23.6376 17.9123 23.7212 18.3405 23.8049 18.7688C23.489 18.4316 23.2381 18.0763 23.0337 17.6936C22.8385 17.3383 22.6899 16.9647 22.5133 16.5911C22.4576 16.6184 22.4018 16.6458 22.3461 16.664C22.374 16.9191 22.4111 17.1742 22.439 17.3838C21.9744 17.6389 21.4727 16.7733 21.0732 17.5205C21.6585 17.9852 22.2067 18.4225 22.8107 18.8963C22.4855 19.0057 22.2532 19.0786 21.8629 19.2061C23.4704 19.4339 24.2694 20.0717 24.288 21.0467C23.7677 20.8007 23.4053 20.0808 22.6434 20.418C23.1173 21.1378 23.5354 21.8029 23.9814 22.4499C24.1022 22.623 24.2973 22.7688 24.4924 22.8508C24.8734 23.0057 24.9013 22.7597 24.8362 22.4681C24.9942 23.2699 25.1614 24.0808 25.3194 24.8827C25.2822 24.8827 25.2358 24.8918 25.1986 24.9009C25.0685 24.3269 24.9384 23.7619 24.8083 23.1879C24.7247 23.1697 24.6504 23.1424 24.5668 23.1241C24.446 23.3884 24.2323 23.6526 24.2323 23.9259C24.2323 24.6184 24.3438 25.3109 24.3531 26.0034C24.3531 26.6048 24.2787 27.2152 24.2323 27.8166L24.0464 27.7893C23.8699 26.6139 23.6934 25.4476 23.5168 24.2722C23.4518 24.2722 23.3867 24.2722 23.3124 24.2722C23.266 24.6458 23.2102 25.0285 23.1637 25.402C23.1266 25.402 23.0801 25.4203 23.043 25.4203C22.9036 24.5547 22.7735 23.689 22.6341 22.8234C22.597 22.8234 22.5598 22.8326 22.5226 22.8417C22.439 23.1606 22.3554 23.4704 22.2067 24.008C22.0673 23.0148 21.9558 22.2403 21.8444 21.4658C21.7886 21.4658 21.7329 21.4658 21.6771 21.4658C21.6028 21.7301 21.5284 22.0034 21.4634 22.2676C21.1847 22.0945 20.9338 21.9487 20.6922 21.8029C20.7108 22.2767 20.8594 22.6048 20.9895 22.951C21.1103 23.279 21.2125 23.6253 21.3705 24.0991C21.0267 23.9442 20.8502 23.8622 20.6643 23.7802C20.6365 23.8257 20.6086 23.8622 20.5807 23.9077C21.1289 24.3906 21.6771 24.8644 22.216 25.3474C22.1788 25.402 22.151 25.4567 22.1138 25.5023C21.8722 25.4385 21.6306 25.3838 21.4634 25.3383C21.993 26.0307 22.5505 26.7688 23.0987 27.4977C23.043 27.5433 22.9872 27.5797 22.9315 27.6253C22.6992 27.5524 22.4762 27.4795 22.2439 27.4066C22.5133 27.7893 22.8385 28.0535 23.1266 28.3451C23.619 28.8371 23.8234 29.3109 23.396 30.0398C22.727 31.1788 22.216 32.418 21.6214 33.6572C22.0581 33.8303 22.3833 33.967 22.7828 34.1218C22.9593 33.6207 23.1359 33.1834 23.2474 32.7369C23.6841 31.0968 24.5761 30.1036 26.2299 29.3656C30.5505 27.443 33.8211 24.2631 35.8745 19.8986" fill="#FEFAF4"/>
<path d="M32.4089 18.9602C33.208 18.6595 33.9142 18.3953 34.7969 18.0764C34.4252 17.7939 34.2672 17.6754 34.1 17.5479C34.3323 17.4112 34.5553 17.2928 34.7783 17.1652C34.7411 17.0923 34.7132 17.0194 34.6761 16.9556C34.2394 17.1743 33.8027 17.393 33.3753 17.6117C33.5611 17.1743 33.7562 16.7096 33.9606 16.254C33.8956 16.2176 33.8305 16.1811 33.7655 16.1538C33.208 16.8007 32.6505 17.4477 32.0837 18.0946C32.0466 18.0672 32.0094 18.0399 31.9815 18.0126C32.1209 17.7301 32.2603 17.4385 32.4089 17.1196C31.3032 17.5934 31.6099 19.1515 30.4298 19.5524C30.6343 19.188 30.8201 18.86 30.9966 18.5319C30.9223 18.4864 30.8573 18.4499 30.7829 18.4044C30.4206 18.942 30.0582 19.4887 29.6865 20.0262C29.7423 20.0991 29.8073 20.172 29.8631 20.2449C30.8387 19.9442 31.8236 19.6436 32.92 19.3155C32.6505 19.1424 32.5297 19.0604 32.3996 18.9784L32.4089 18.9602Z" fill="#FEFAF4"/>
<path d="M25.3379 10.1128C26.1091 10.8327 26.871 11.5525 27.6422 12.2632C27.7073 12.2359 27.7816 12.2085 27.8466 12.1812C27.5679 11.1971 27.2799 10.204 27.0011 9.21991C26.9361 9.23813 26.871 9.25636 26.806 9.26547L26.8524 10.286C26.7874 10.286 26.7131 10.286 26.648 10.286C26.5737 9.56615 26.4901 8.83722 26.4065 8.05362C26.3135 8.29964 26.2392 8.50009 26.1742 8.68232C25.849 8.44542 25.5609 8.23586 25.2822 8.0354C25.1893 8.30875 25.1056 8.57299 24.9941 8.89189C25.1707 9.16524 25.4123 9.52971 25.6445 9.89417C25.4494 10.0217 25.3193 10.1037 25.3286 10.1037L25.3379 10.1128Z" fill="#FEFAF4"/>
<path d="M27.893 13.1104C27.5121 12.6912 27.2147 12.3723 26.8059 11.9167C26.7966 13.083 26.8617 13.1559 27.893 13.1104Z" fill="#FEFAF4"/>
<path d="M35.9115 19.9167C33.8674 24.2812 30.5875 27.4612 26.2669 29.3837C24.613 30.1218 23.721 31.1149 23.2843 32.755C23.1636 33.2015 22.987 33.6388 22.8198 34.14C22.4295 33.9851 22.095 33.8484 21.6583 33.6753C22.253 32.4361 22.7733 31.206 23.433 30.058C23.8604 29.329 23.6467 28.8552 23.1636 28.3632C22.8662 28.0716 22.541 27.8165 22.2809 27.4247C22.5131 27.4976 22.7361 27.5705 22.9684 27.6434C23.0242 27.5978 23.0799 27.5614 23.1357 27.5158C22.5782 26.7869 22.0207 26.0489 21.5004 25.3564C21.6583 25.3928 21.8999 25.4566 22.1508 25.5204C22.1879 25.4657 22.2158 25.411 22.253 25.3655C21.7048 24.8826 21.1566 24.4088 20.6177 23.9259C20.6456 23.8803 20.6734 23.8439 20.7013 23.7983C20.8871 23.8803 21.0637 23.9623 21.4075 24.1172C21.2495 23.6434 21.1566 23.3063 21.0265 22.9691C20.8964 22.632 20.7478 22.2949 20.7292 21.8211C20.9708 21.9669 21.2216 22.1126 21.5004 22.2858C21.5747 22.0215 21.6397 21.7482 21.7141 21.4839C21.7698 21.4839 21.8256 21.4839 21.8813 21.4839C21.9928 22.2584 22.1043 23.0329 22.2437 24.0261C22.3831 23.4976 22.4667 23.1787 22.5596 22.8598C22.5968 22.8598 22.6339 22.8507 22.6711 22.8416C22.8105 23.7072 22.9406 24.5728 23.0799 25.4384C23.1171 25.4384 23.1636 25.4202 23.2007 25.4202C23.2472 25.0466 23.3029 24.6639 23.3494 24.2903C23.4144 24.2903 23.4795 24.2903 23.5538 24.2903C23.7303 25.4657 23.9069 26.632 24.0834 27.8074L24.2692 27.8347C24.3157 27.2334 24.39 26.6229 24.39 26.0215C24.39 25.329 24.26 24.6366 24.2692 23.9441C24.2692 23.6798 24.4922 23.4156 24.6037 23.1423C24.6874 23.1605 24.7617 23.1878 24.8453 23.206C24.9754 23.7801 25.1055 24.345 25.2356 24.919C25.2727 24.919 25.3192 24.9099 25.3564 24.9008C25.1984 24.099 25.0311 23.288 24.8732 22.4862V22.5044C24.8267 20.5728 24.7431 18.632 24.7245 16.7003C24.7245 15.8621 24.8453 15.0238 24.9104 14.1764L24.8918 14.2038L25.4586 11.2425C25.5329 11.2151 25.6072 11.1878 25.6816 11.1514C25.9138 11.4976 26.1926 11.8074 26.3598 12.181C26.6386 12.8279 26.843 13.5204 27.0753 14.1855L27.0567 14.1673C27.5213 16.4908 27.8372 18.8233 27.5492 21.2015C27.5027 21.6206 27.4377 22.0306 27.3912 22.4498C27.3262 22.3678 27.2518 22.2858 27.1868 22.2129C27.6049 21.8757 28.0137 21.5386 28.5526 21.1013C28.6363 21.4475 28.6548 21.5568 28.6641 21.6024C29.2867 21.2288 29.8999 20.8644 30.5131 20.4908C30.5503 20.5454 30.5968 20.6001 30.6339 20.6548C30.4574 20.8552 30.2809 21.0557 30.1043 21.247C30.1229 21.2653 30.1415 21.2926 30.1601 21.3108L32.037 20.1536C32.0927 20.2448 32.1577 20.345 32.2135 20.4361C31.3215 21.0284 30.4388 21.6206 29.5468 22.2129C29.4446 22.2767 29.3052 22.304 29.2309 22.386C28.7478 22.9145 27.9394 23.3154 27.3447 23.3427C26.6293 24.8644 25.951 26.3222 25.2449 27.8074C28.2925 23.9987 31.3865 20.2539 36.0973 18.5044" fill="#357900"/>
<path d="M25.9419 28.4727C29.5098 26.122 32.4088 23.0604 35.0755 19.7529C32.0278 22.6595 28.9802 25.5661 25.9419 28.4727Z" fill="#357900"/>
<path d="M26.0722 23.8531C26.4903 20.3633 26.258 16.9009 25.8213 13.4385L26.0722 23.8531Z" fill="#357900"/>
<path d="M27.0664 14.1764C27.085 14.0033 27.1129 13.8393 27.1314 13.6753C27.9212 13.5842 28.1163 13.9122 28.042 14.7049C28.0049 15.1149 28.3672 15.5614 28.6645 15.9805C28.4601 15.3063 28.6553 14.796 28.999 14.2493C29.1291 14.0398 28.8504 13.5295 28.711 13.1742C28.488 12.6184 28.2371 12.0808 27.9956 11.5432C28.0606 11.5067 28.1256 11.4703 28.2 11.4339C28.5438 11.7254 28.8875 12.0079 29.2313 12.2995C29.2685 12.2721 29.315 12.2357 29.3521 12.2083C28.8411 11.3427 28.3208 10.4771 27.6982 9.4293C28.1907 9.9031 28.5159 10.2311 28.8504 10.55C28.934 10.4954 29.0083 10.4316 29.092 10.3769C28.6181 9.56597 28.1535 8.75504 27.6796 7.95322C27.7168 7.91677 27.754 7.88032 27.7911 7.84388C28.0792 8.07167 28.3672 8.29034 28.7853 8.60925C28.5716 7.59786 28.3765 6.71404 28.1907 5.83021C28.2371 5.81199 28.2836 5.79376 28.3301 5.77554C28.5345 6.09445 28.7296 6.41335 28.9805 6.81426C29.0455 6.41335 29.1012 6.07622 29.157 5.73909C29.2127 5.73909 29.2592 5.73909 29.315 5.72998C29.4265 6.03978 29.538 6.34957 29.6773 6.72315C29.8632 6.59558 30.0211 6.48624 30.1884 6.37691C29.9468 7.47941 29.7052 8.58192 29.445 9.81199C29.9189 9.1924 30.2906 8.70037 30.6715 8.20834C30.7366 8.24479 30.7923 8.27212 30.8573 8.30857C30.56 9.31085 30.2534 10.304 29.9561 11.3063C29.9839 11.3245 30.0118 11.3518 30.0304 11.3701C30.3184 11.0056 30.6065 10.6411 30.8945 10.2767C30.9503 10.304 31.006 10.3313 31.0618 10.3587C30.5693 11.3427 30.0769 12.3359 29.5844 13.32C29.7052 13.4111 29.8167 13.5022 29.9375 13.5933C30.2441 13.1195 30.5414 12.6457 30.8481 12.1719C30.941 12.2448 31.0246 12.3177 31.1175 12.3906C30.8759 12.8097 30.6344 13.2288 30.3928 13.648C30.4206 13.6753 30.4485 13.7026 30.4764 13.7391C30.6808 13.6206 30.8759 13.4931 31.0803 13.3746C31.1175 13.4111 31.164 13.4475 31.2011 13.484C30.9038 13.8849 30.6065 14.2858 30.272 14.7323C30.4021 14.8052 30.5321 14.878 30.8666 15.0512C29.4357 15.7163 28.6367 16.6548 29.2127 18.3405C29.8446 17.5842 29.3428 16.3815 30.3928 15.8985C30.3463 16.2175 30.3091 16.4908 30.2627 16.7641C30.3184 16.7915 30.3742 16.8097 30.4299 16.837C30.8666 15.8985 31.3033 14.9692 31.7493 14.0307C31.8051 14.0489 31.8701 14.0671 31.9259 14.0853C31.8144 14.4498 31.7122 14.8143 31.6007 15.1787C31.6564 15.2061 31.7215 15.2334 31.7772 15.2516C32.2046 14.2949 32.6227 13.3291 33.0501 12.3541C33.1152 12.509 33.1895 12.6821 33.2731 12.8735C33.6076 12.6184 33.9421 12.3723 34.4067 12.0261C34.2395 12.5819 34.1094 12.9828 33.9793 13.4202C34.2116 13.5295 34.4253 13.6298 34.5554 13.6935C33.7563 14.2858 32.9386 14.8963 32.121 15.5067L32.2418 15.6708C32.9386 15.4156 33.6262 15.1605 34.3231 14.9054C34.3417 14.9509 34.3603 15.0056 34.3788 15.0512C33.0687 15.8803 31.7679 16.7095 30.2999 17.648C30.6994 17.8029 30.8388 17.8667 31.006 17.9304C30.9596 18.0307 30.9503 18.1127 30.9038 18.1582C30.3928 18.6958 29.6123 19.1423 29.4265 19.771C29.157 20.673 28.3579 20.7277 27.8004 21.4293C27.8748 20.4544 27.9398 19.6708 27.9956 18.8872C28.0327 18.8872 28.0699 18.878 28.1163 18.8689C28.1907 19.0785 28.265 19.279 28.3951 19.6434C28.5438 18.9327 28.6738 18.3678 28.7668 17.8029C28.7853 17.6935 28.6924 17.4931 28.5902 17.4384C27.6982 16.919 27.6239 16.0079 27.4474 15.1332C27.3823 14.8052 27.2244 14.4954 27.1129 14.1856L27.1314 14.2038L27.0664 14.1764Z" fill="#357900"/>
<path d="M24.9105 14.1583C24.799 14.4772 24.6875 14.7961 24.5667 15.1606C24.195 14.9328 23.842 14.705 23.4889 14.4863L23.3402 14.6048C23.9906 15.2608 25.0592 15.7528 24.3716 16.9647C23.8884 16.6458 23.396 16.336 22.9128 16.0171C22.9221 15.9624 22.9314 15.9168 22.9407 15.8622C23.2194 15.8804 23.4982 15.9077 23.9999 15.9442C23.1358 15.4704 22.4482 15.0968 21.6956 14.6868C21.9279 14.5319 22.123 14.3952 22.4111 14.2039C21.9186 13.9214 21.4819 13.6754 21.0359 13.4203C21.0545 13.3656 21.0731 13.3109 21.101 13.2562C21.77 13.5205 22.4482 13.7847 23.1451 14.0581C22.9128 13.5296 21.1474 12.5455 19.8652 12.1993C20.113 12.0596 20.8005 12.0748 21.9279 12.2449C21.1567 11.8804 20.3948 11.5159 19.5679 11.1332C19.8187 11.0968 20.0232 11.0603 20.2926 11.0239C20.0417 10.5683 19.8187 10.1674 19.5957 9.76649C19.6236 9.72094 19.6515 9.68449 19.6701 9.63893C20.0789 9.87583 20.4877 10.1127 20.9059 10.3496C20.8873 10.0854 20.8594 9.80294 20.8315 9.43848C21.3704 10.295 21.8536 11.0695 22.3367 11.8439C22.3832 11.8166 22.439 11.7893 22.4854 11.7619C22.346 11.3519 22.2067 10.951 22.0673 10.541C22.1137 10.5136 22.1602 10.4954 22.216 10.4681C22.8013 11.4977 23.3867 12.5364 23.9813 13.566H24.1114C24.0092 12.91 23.907 12.2631 23.7676 11.3975C24.4366 12.3633 24.9848 13.1378 24.8547 14.1765L24.8733 14.1492L24.9105 14.1583Z" fill="#357900"/>
<path d="M24.8734 22.4681C24.9385 22.7596 24.9106 23.0056 24.5296 22.8507C24.3345 22.7779 24.1301 22.623 24.0186 22.4498C23.5633 21.8029 23.1452 21.1378 22.6806 20.4179C23.4425 20.0808 23.8049 20.8006 24.3252 21.0466C24.2973 20.0717 23.4983 19.4339 21.9001 19.2061C22.2997 19.0785 22.532 19.0056 22.8479 18.8963C22.2532 18.4225 21.6957 17.9851 21.1104 17.5204C21.5099 16.7733 22.0116 17.6389 22.4762 17.3838C22.4483 17.1742 22.4205 16.9191 22.3833 16.664C22.439 16.6366 22.4948 16.6093 22.5505 16.5911C22.7178 16.9555 22.8757 17.3382 23.0709 17.6936C23.2846 18.0763 23.5261 18.4316 23.8421 18.7687C23.7584 18.3405 23.6748 17.9122 23.5912 17.484C24.3903 18.2129 24.4553 19.1879 24.5761 20.1446C24.669 20.9282 24.7805 21.7027 24.892 22.4863L24.8827 22.4681H24.8734Z" fill="#357900"/>
<path d="M32.4089 18.9601C32.539 19.0512 32.6598 19.1241 32.9292 19.2972C31.8236 19.6344 30.848 19.935 29.8723 20.2266C29.8166 20.1537 29.7515 20.0808 29.6958 20.0079C30.0582 19.4704 30.4205 18.9237 30.7922 18.3861C30.8665 18.4316 30.9316 18.4681 31.0059 18.5136C30.8201 18.8416 30.6435 19.1697 30.4391 19.5341C31.6099 19.1332 31.3125 17.5751 32.4182 17.1013C32.2696 17.4202 32.1302 17.7027 31.9908 17.9943C32.028 18.0216 32.0651 18.0489 32.093 18.0763C32.6505 17.4293 33.208 16.7824 33.7748 16.1355C33.8398 16.1719 33.9049 16.2084 33.9699 16.2357C33.7748 16.6913 33.5797 17.156 33.3845 17.5934C33.8119 17.3747 34.2486 17.156 34.6854 16.9373C34.7225 17.0102 34.7504 17.0831 34.7876 17.1469C34.5646 17.2745 34.3509 17.3929 34.1093 17.5296C34.2765 17.6571 34.4345 17.7756 34.8061 18.058C33.9327 18.3861 33.2266 18.6412 32.4182 18.9419L32.4089 18.9601Z" fill="#357900"/>
<path d="M25.3379 10.1128C25.3379 10.1128 25.4587 10.0308 25.6538 9.9032C25.4122 9.53874 25.18 9.17427 25.0034 8.90093C25.1149 8.57291 25.1985 8.31778 25.2915 8.04443C25.5609 8.23578 25.8582 8.45446 26.1834 8.69136C26.2485 8.50913 26.3228 8.31778 26.4157 8.06266C26.4994 8.84626 26.583 9.57519 26.6573 10.295C26.7224 10.295 26.7967 10.295 26.8617 10.295L26.8153 9.2745C26.8803 9.25628 26.9453 9.23806 27.0104 9.22894C27.2891 10.213 27.5772 11.2062 27.8559 12.1902C27.7909 12.2176 27.7165 12.2449 27.6515 12.2722C26.8896 11.5615 26.1277 10.8508 25.3472 10.1219L25.3379 10.1128Z" fill="#357900"/>
<path d="M27.893 13.1104C26.8617 13.1559 26.7966 13.083 26.8059 11.9167C27.2147 12.3723 27.5121 12.6912 27.893 13.1104Z" fill="#357900"/>
<path d="M25.9419 28.4727C28.9895 25.5661 32.0371 22.6595 35.0755 19.7529C32.4088 23.0604 29.5005 26.122 25.9419 28.4727Z" fill="#FEFAF4"/>
<path d="M26.0722 23.8531L25.8213 13.4385C26.258 16.9009 26.4903 20.3724 26.0722 23.8531Z" fill="#FEFAF4"/>
<path d="M11.54 8.11728C14.9686 9.08312 16.6875 11.525 16.7712 15.279C16.8176 17.3291 16.3159 19.3063 15.8699 21.2836C15.1544 24.4271 15.6097 27.361 17.2915 30.1127C17.5702 30.5683 17.8583 31.033 18.0627 31.525C18.3786 32.2631 18.0999 32.8189 17.3287 33.0467C16.6411 33.2471 15.9442 33.4111 15.2566 33.6116C15.0894 33.6571 14.9222 33.7665 14.7735 33.8758C14.1417 34.3314 13.6585 34.3405 13.0174 33.9396C12.4413 33.5751 12.4971 33.0649 12.6271 32.5091C13.1846 30.131 12.5342 28.0171 11.094 26.1583C9.9419 24.6822 8.60392 23.3428 7.43319 21.8758C5.86292 19.9077 4.86873 17.6845 5.0081 15.0786C5.12889 12.8644 5.96513 10.951 7.47036 9.33824C8.65967 8.07173 10.0348 7.48858 11.5215 8.11728H11.54ZM14.8943 29.4476C14.9779 29.4111 15.0522 29.3747 15.1359 29.3382C14.9222 27.9988 14.6992 26.6594 14.5133 25.3109C14.439 24.7642 14.3647 24.1902 14.4483 23.6526C14.727 22.0216 15.1452 20.418 15.4053 18.7779C15.6004 17.5387 15.6934 16.2813 15.7119 15.0239C15.7119 14.5865 15.3403 14.1492 15.1359 13.7118C15.1173 13.6754 15.0337 13.6663 14.95 13.6298C14.9965 13.812 15.0244 13.9578 15.0708 14.1401C14.8571 14.1036 14.6899 14.0672 14.439 14.0216C14.8571 14.9328 14.7735 15.7802 14.5133 16.6275C14.4483 16.828 14.4204 17.0284 14.3554 17.2289C13.5563 19.9715 13.1753 22.7323 14.1324 25.5296C14.1695 25.648 14.1603 25.7847 14.1695 25.9123C14.1324 25.9305 14.0952 25.9487 14.058 25.9669C13.5935 25.3929 13.1196 24.828 12.5435 24.1264C12.5993 24.6184 12.6364 24.91 12.6736 25.2016L12.5064 25.2836C11.475 23.9988 10.4529 22.7141 9.42158 21.4294C9.3937 21.4476 9.36583 21.4658 9.33795 21.484C10.8339 23.8075 12.3298 26.131 13.835 28.4544C13.7793 28.1355 13.7235 27.7802 13.6678 27.4339C13.7607 27.3884 13.8629 27.3337 13.9558 27.2881C14.2717 28.0079 14.597 28.7369 14.9129 29.4567L14.8943 29.4476ZM13.2218 19.0057C13.3054 18.4772 13.4076 17.9578 13.482 17.4294C13.7235 15.5979 13.3798 13.8849 12.3205 12.3542C11.2613 10.8325 9.38441 10.8508 8.33447 12.336C8.80833 12.1537 9.30079 11.9533 9.80253 11.7984C9.9419 11.7528 10.1277 11.8804 10.295 11.9259C10.2114 12.0717 10.1556 12.254 10.0348 12.3542C9.78394 12.5638 9.48662 12.7187 9.21716 12.91C7.94422 13.8029 7.25665 15.5068 7.60044 16.9738C7.71193 16.5546 7.77698 16.1811 7.91635 15.8439C8.19509 15.1697 8.6225 14.6048 9.3937 14.4863C10.1463 14.377 10.6666 14.8052 11.094 15.3884C11.7816 16.336 12.0975 17.4202 12.3019 18.541C12.3391 18.7414 12.3763 18.9419 12.4134 19.1423C12.5064 17.1742 12.7758 15.2152 12.2369 13.2836C13.705 15.0057 13.1103 17.0284 13.2218 19.0057ZM14.3182 12.582C14.2625 12.4089 14.2253 12.2357 14.1602 12.0717C13.5098 10.5136 12.2927 9.5387 10.8339 8.84621C10.5737 8.71865 10.1463 8.69132 9.89544 8.81888C9.11495 9.2289 8.39022 9.73004 7.6376 10.2038C10.3879 9.73004 12.3205 9.73915 14.3182 12.582ZM13.5749 33.0102C13.5749 33.0831 13.5749 33.1469 13.5749 33.2198C13.9373 33.1742 14.2996 33.156 14.6434 33.0649C14.7363 33.0376 14.7828 32.8098 14.8478 32.6731C14.7084 32.6458 14.5412 32.5546 14.4297 32.5911C14.1324 32.7004 13.8629 32.8644 13.5749 33.0102ZM17.0406 32.4453C17.0127 32.336 16.9849 32.2357 16.9477 32.1264C16.6039 32.2175 16.2601 32.3086 15.9256 32.3997L16 32.6822C16.3438 32.6002 16.6968 32.5273 17.0406 32.4453Z" fill="#BF491F"/>
<path d="M14.8942 29.4384C14.5783 28.7186 14.2531 27.9897 13.9372 27.2699C13.8443 27.3154 13.7421 27.3701 13.6492 27.4157C13.7049 27.771 13.7607 28.1173 13.8164 28.4362C12.3205 26.1127 10.8153 23.7892 9.31934 21.4658C9.34721 21.4476 9.37509 21.4293 9.40296 21.4111C10.4343 22.6959 11.4564 23.9806 12.4877 25.2653L12.655 25.1833C12.6178 24.8918 12.5807 24.6002 12.5249 24.1082C13.101 24.8097 13.5749 25.3838 14.0394 25.9487C14.0766 25.9305 14.1138 25.9123 14.1509 25.894C14.1416 25.7665 14.1509 25.6298 14.1138 25.5113C13.166 22.7141 13.547 19.9624 14.3368 17.2107C14.3925 17.0102 14.4297 16.8097 14.4947 16.6093C14.7549 15.7619 14.8385 14.9145 14.4204 14.0034C14.6713 14.0489 14.8385 14.0854 15.0522 14.1218C15.0057 13.9396 14.9779 13.7938 14.9314 13.6116C15.0243 13.648 15.0987 13.6571 15.1172 13.6936C15.3217 14.1309 15.7026 14.5683 15.6933 15.0056C15.684 16.2539 15.5818 17.5205 15.3867 18.7596C15.1265 20.3906 14.7177 22.0034 14.4297 23.6343C14.3368 24.1719 14.4111 24.746 14.4947 25.2927C14.6805 26.6412 14.9035 27.9806 15.1172 29.32C15.0336 29.3564 14.9593 29.3929 14.8757 29.4293L14.8942 29.4384Z" fill="#FEFAF4"/>
<path d="M13.2216 19.0057C13.1101 17.0285 13.7048 15.0057 12.2367 13.2836C12.7849 15.2153 12.5062 17.1742 12.4132 19.1424C12.3761 18.9419 12.3296 18.7414 12.3017 18.541C12.0973 17.4111 11.7814 16.3269 11.0938 15.3884C10.6664 14.8052 10.1461 14.377 9.39349 14.4863C8.63159 14.5957 8.19489 15.1606 7.91614 15.844C7.77677 16.1811 7.71173 16.5547 7.60023 16.9738C7.24715 15.5068 7.94402 13.803 9.21696 12.91C9.48641 12.7187 9.78374 12.5638 10.0346 12.3542C10.1554 12.254 10.2111 12.0717 10.2948 11.926C10.1275 11.8804 9.94169 11.7528 9.80232 11.7984C9.30058 11.9533 8.80813 12.1537 8.33426 12.336C9.3842 10.8508 11.2611 10.8326 12.3203 12.3542C13.3796 13.8758 13.7233 15.5888 13.4818 17.4294C13.4167 17.9578 13.3052 18.4863 13.2216 19.0057ZM10.7872 12.5911C10.6664 13.3383 11.1496 14.0945 11.8186 14.3588C11.4934 13.8121 11.1496 13.2198 10.7872 12.5911Z" fill="#FEFAF4"/>
<path d="M14.3183 12.5728C12.3113 9.72993 10.388 9.71171 7.6377 10.1946C8.39031 9.72993 9.11505 9.21968 9.89553 8.80966C10.1371 8.68209 10.5645 8.70943 10.834 8.83699C12.2927 9.52947 13.5099 10.5044 14.1603 12.0625C14.2254 12.2265 14.2718 12.3996 14.3183 12.5728Z" fill="#FEFAF4"/>
<path d="M13.5747 33.0012C13.8535 32.8554 14.1322 32.6914 14.4295 32.5821C14.541 32.5365 14.7083 32.6276 14.8476 32.6641C14.7826 32.8007 14.7454 33.0376 14.6432 33.0559C14.2994 33.147 13.9278 33.1652 13.5747 33.2108C13.5747 33.1379 13.5747 33.0741 13.5747 33.0012Z" fill="#FEFAF4"/>
<path d="M10.7874 12.5911C11.1498 13.2107 11.5028 13.812 11.8187 14.3587C11.1405 14.0945 10.6666 13.3382 10.7874 12.5911Z" fill="#BF491F"/>
</g>
<defs>
<clipPath id="clip0_248_4047">
<rect width="40" height="40" fill="white" transform="translate(0 0.5)"/>
</clipPath>
</defs>
</svg>
