<svg width="19" height="19" viewBox="0 0 19 19" fill="none" xmlns="http://www.w3.org/2000/svg">
<path d="M7 13.5C5.18333 13.5 3.646 12.8707 2.388 11.612C1.13 10.3533 0.500667 8.816 0.5 7C0.5 5.18333 1.12933 3.646 2.388 2.388C3.64667 1.13 5.184 0.500667 7 0.5C8.81667 0.5 10.354 1.12933 11.612 2.388C12.87 3.64667 13.4993 5.184 13.5 7C13.5 7.73333 13.3833 8.425 13.15 9.075C12.9167 9.725 12.6 10.3 12.2 10.8L17.8 16.4C17.9833 16.5833 18.075 16.8167 18.075 17.1C18.075 17.3833 17.9833 17.6167 17.8 17.8C17.6167 17.9833 17.3833 18.075 17.1 18.075C16.8167 18.075 16.5833 17.9833 16.4 17.8L10.8 12.2C10.3 12.6 9.725 12.9167 9.075 13.15C8.425 13.3833 7.73333 13.5 7 13.5ZM7 11.5C8.25 11.5 9.31267 11.0623 10.188 10.187C11.0633 9.31167 11.5007 8.24933 11.5 7C11.5 5.75 11.0623 4.68733 10.187 3.812C9.31167 2.93667 8.24933 2.49933 7 2.5C5.75 2.5 4.68733 2.93767 3.812 3.813C2.93667 4.68833 2.49933 5.75067 2.5 7C2.5 8.25 2.93767 9.31267 3.813 10.188C4.68833 11.0633 5.75067 11.5007 7 11.5Z" fill="#F2F2F2"/>
</svg>
